<?xml version="1.0" standalone="no"?>
<svg xmlns:xlink="http://www.w3.org/1999/xlink" id="wave" style="transform:rotate(0deg); transition: 0.3s" viewBox="0 0 1440 490" version="1.1" xmlns="http://www.w3.org/2000/svg"><defs><linearGradient id="sw-gradient-0" x1="0" x2="0" y1="1" y2="0"><stop stop-color="rgba(16, 47, 27, 1)" offset="0%"/><stop stop-color="rgba(49.431, 114.209, 72.417, 1)" offset="100%"/></linearGradient></defs><path style="transform:translate(0, 0px); opacity:1" fill="url(#sw-gradient-0)" d="M0,49L40,89.8C80,131,160,212,240,236.8C320,261,400,229,480,228.7C560,229,640,261,720,277.7C800,294,880,294,960,277.7C1040,261,1120,229,1200,204.2C1280,180,1360,163,1440,171.5C1520,180,1600,212,1680,212.3C1760,212,1840,180,1920,171.5C2000,163,2080,180,2160,196C2240,212,2320,229,2400,245C2480,261,2560,278,2640,310.3C2720,343,2800,392,2880,351.2C2960,310,3040,180,3120,122.5C3200,65,3280,82,3360,138.8C3440,196,3520,294,3600,326.7C3680,359,3760,327,3840,269.5C3920,212,4000,131,4080,147C4160,163,4240,278,4320,277.7C4400,278,4480,163,4560,138.8C4640,114,4720,180,4800,196C4880,212,4960,180,5040,163.3C5120,147,5200,147,5280,147C5360,147,5440,147,5520,155.2C5600,163,5680,180,5720,187.8L5760,196L5760,490L5720,490C5680,490,5600,490,5520,490C5440,490,5360,490,5280,490C5200,490,5120,490,5040,490C4960,490,4880,490,4800,490C4720,490,4640,490,4560,490C4480,490,4400,490,4320,490C4240,490,4160,490,4080,490C4000,490,3920,490,3840,490C3760,490,3680,490,3600,490C3520,490,3440,490,3360,490C3280,490,3200,490,3120,490C3040,490,2960,490,2880,490C2800,490,2720,490,2640,490C2560,490,2480,490,2400,490C2320,490,2240,490,2160,490C2080,490,2000,490,1920,490C1840,490,1760,490,1680,490C1600,490,1520,490,1440,490C1360,490,1280,490,1200,490C1120,490,1040,490,960,490C880,490,800,490,720,490C640,490,560,490,480,490C400,490,320,490,240,490C160,490,80,490,40,490L0,490Z"/></svg>